HIERARCHY
ROOT Hips
{
	OFFSET 0.000000 0.000000 0.000000
	CHANNELS 6 Xposition Yposition Zposition Yrotation Xrotation Zrotation
	JOINT Chest
	{
		OFFSET 0.000000 -0.009281 11.569106
		CHANNELS 3 Yrotation Xrotation Zrotation
		JOINT Chest2
		{
			OFFSET -0.000000 0.016865 9.269641
			CHANNELS 3 Yrotation Xrotation Zrotation
			JOINT Chest3
			{
				OFFSET -0.000000 0.000001 8.374491
				CHANNELS 3 Yrotation Xrotation Zrotation
				JOINT Chest4
				{
					OFFSET -0.000000 0.000001 8.374493
					CHANNELS 3 Yrotation Xrotation Zrotation
					JOINT Neck
					{
						OFFSET -0.000000 0.000002 12.152554
						CHANNELS 3 Yrotation Xrotation Zrotation
						JOINT Head
						{
							OFFSET -0.000000 0.040101 7.802319
							CHANNELS 3 Yrotation Xrotation Zrotation
							End Site
							{
								OFFSET -0.000000 0.020947 14.853096
							}
						}
					}
					JOINT RightCollar
					{
						OFFSET 2.894404 0.000001 6.791374
						CHANNELS 3 Yrotation Xrotation Zrotation
						JOINT RightShoulder
						{
							OFFSET 13.574684 0.000001 0.000000
							CHANNELS 3 Yrotation Xrotation Zrotation
							JOINT RightElbow
							{
								OFFSET 23.923903 0.000002 0.000000
								CHANNELS 3 Yrotation Xrotation Zrotation
								JOINT RightWrist
								{
									OFFSET 19.846718 0.012767 0.000000
									CHANNELS 3 Yrotation Xrotation Zrotation
									End Site
									{
										OFFSET 14.973145 0.000001 0.000000
									}
								}
							}
						}
					}
					JOINT LeftCollar
					{
						OFFSET -2.894404 0.000001 6.791374
						CHANNELS 3 Yrotation Xrotation Zrotation
						JOINT LeftShoulder
						{
							OFFSET -13.574684 -0.000001 0.000000
							CHANNELS 3 Yrotation Xrotation Zrotation
							JOINT LeftElbow
							{
								OFFSET -23.923903 -0.000002 0.000000
								CHANNELS 3 Yrotation Xrotation Zrotation
								JOINT LeftWrist
								{
									OFFSET -19.846718 0.012763 0.000000
									CHANNELS 3 Yrotation Xrotation Zrotation
									End Site
									{
										OFFSET -14.973145 -0.000001 0.000000
									}
								}
							}
						}
					}
				}
			}
		}
	}
	JOINT RightHip
	{
		OFFSET 9.469263 0.004643 0.045487
		CHANNELS 3 Yrotation Xrotation Zrotation
		JOINT RightKnee
		{
			OFFSET 0.000000 0.002661 -40.478676
			CHANNELS 3 Yrotation Xrotation Zrotation
			JOINT RightAnkle
			{
				OFFSET 0.000000 0.049106 -35.224068
				CHANNELS 3 Yrotation Xrotation Zrotation
				JOINT RightToe
				{
					OFFSET -0.000001 12.539529 -6.151390
					CHANNELS 3 Yrotation Xrotation Zrotation
					End Site
					{
						OFFSET -0.000001 5.044994 -1.291870
					}
				}
			}
		}
	}
	JOINT LeftHip
	{
		OFFSET -9.469263 0.004641 0.045487
		CHANNELS 3 Yrotation Xrotation Zrotation
		JOINT LeftKnee
		{
			OFFSET 0.000000 0.002661 -40.478676
			CHANNELS 3 Yrotation Xrotation Zrotation
			JOINT LeftAnkle
			{
				OFFSET 0.000000 0.049106 -35.224068
				CHANNELS 3 Yrotation Xrotation Zrotation
				JOINT LeftToe
				{
					OFFSET -0.000001 12.539529 -6.151390
					CHANNELS 3 Yrotation Xrotation Zrotation
					End Site
					{
						OFFSET -0.000001 5.044994 -1.291870
					}
				}
			}
		}
	}
}
MOTION
Frames: 8
Frame Time: 0.016667
15.306375 -5.052623 83.362106 -2.918396 -0.648217 -116.829416 -2.251345 -4.268635 3.246017 -0.612369 -1.863787 1.279412 -0.612369 -1.863787 1.279413 -0.455335 -1.399131 0.957607 1.546158 -11.963149 -4.516151 1.022240 13.928538 -7.976411 9.382097 4.146046 -2.129786 42.003396 -14.933345 -12.787670 -23.806238 -62.049673 85.150179 -41.469295 38.692492 50.902429 -7.798280 5.106963 -7.160466 -40.343875 -9.133312 19.097824 0.896009 -62.292452 -64.102446 26.372416 7.374718 -72.037479 -4.155283 0.972085 -0.550962 1.612762 -12.937287 -11.914631 2.524105 9.529128 6.390185 0.856577 0.097468 0.011645 -1.257242 0.587873 3.964495 0.822830 -7.578971 2.742220 6.400085 -0.933847 1.870210 -2.338410 0.125007 -0.073902 
15.617452 -5.241366 83.486740 -2.836738 -0.742199 -116.589936 -2.123448 -4.271745 3.205612 -0.561408 -1.875258 1.238690 -0.561408 -1.875259 1.238688 -0.417218 -1.407589 0.927213 1.520794 -11.884328 -4.491829 0.979727 14.074271 -7.943814 9.392405 4.268347 -2.096961 42.008139 -14.728314 -13.073671 -24.126248 -61.982164 85.448119 -41.366190 38.728071 50.992454 -7.819354 5.043757 -7.208780 -40.352665 -9.408952 18.992118 0.701107 -62.236083 -63.934962 26.465211 7.380426 -71.878315 -4.396107 0.446619 -2.152144 1.964306 -12.448305 -12.589059 2.218305 9.394323 5.761437 0.953644 0.274102 0.040962 -1.361043 0.308801 5.500014 0.449024 -7.498212 4.587771 6.866402 -0.962036 2.381461 -1.739844 0.305770 -0.026641 
15.898035 -5.455737 83.590141 -2.752122 -0.872087 -116.330430 -1.969973 -4.287198 3.160302 -0.514619 -1.898977 1.200364 -0.514619 -1.898977 1.200366 -0.382199 -1.425249 0.898594 1.509851 -11.801394 -4.468145 0.964302 14.228385 -7.906420 9.390418 4.344341 -2.081996 41.987099 -14.617829 -13.181006 -24.451355 -61.891500 85.719373 -41.316149 38.832416 51.068682 -7.834195 4.956065 -7.276100 -40.395279 -9.578920 18.921842 0.475299 -62.195819 -63.712039 26.557922 7.451876 -71.727710 -4.532624 -0.089957 -3.707685 2.287066 -11.994860 -12.796956 1.795880 9.313460 4.706116 1.064636 0.419585 0.078336 -1.338764 -0.027036 7.021612 0.129071 -7.296936 6.104393 7.062142 -0.956984 2.818192 -1.170517 0.405744 0.027296 
16.101421 -5.699349 83.674149 -2.669743 -0.995649 -116.051048 -1.825253 -4.299894 3.116723 -0.481482 -1.926729 1.166927 -0.481483 -1.926730 1.166928 -0.357400 -1.445974 0.873595 1.523338 -11.727904 -4.456829 0.990881 14.365853 -7.881774 9.364993 4.381391 -2.106512 41.945336 -14.647672 -13.130039 -24.571623 -61.788978 85.809914 -41.294463 38.919787 51.119164 -7.840425 4.866947 -7.361058 -40.465022 -9.612413 18.889626 0.226801 -62.164502 -63.444924 26.617746 7.514458 -71.635202 -4.593678 -0.526330 -4.952504 2.654646 -11.653212 -13.466786 1.308643 9.217527 3.885546 1.197199 0.576594 0.118248 -1.259294 -0.422484 8.478598 -0.030117 -6.883520 6.913179 7.058272 -1.008681 3.322915 -0.725484 0.390691 0.071356 
16.224072 -5.953428 83.740807 -2.591643 -1.093702 -115.780709 -1.718527 -4.300401 3.093169 -0.465672 -1.946377 1.148719 -0.465672 -1.946377 1.148719 -0.345562 -1.460667 0.859975 1.569421 -11.684375 -4.471243 1.070496 14.448541 -7.891103 9.351918 4.395004 -2.112210 41.880633 -14.728313 -13.040098 -24.525065 -61.705753 85.772197 -41.272941 38.925979 51.142582 -7.848049 4.849928 -7.412918 -40.537463 -9.609200 18.908595 0.084428 -62.149312 -63.268247 26.642454 7.571079 -71.603762 -4.566866 -0.783289 -5.772286 2.958740 -11.513649 -14.703968 0.919088 9.098309 3.517981 1.284281 0.769879 0.138225 -1.157056 -0.847317 9.712939 -0.002453 -6.309280 7.050573 6.900274 -1.090797 3.768156 -0.421995 0.260934 0.105711 
16.244785 -6.220071 83.792374 -2.516515 -1.165343 -115.555668 -1.647229 -4.285746 3.109893 -0.469934 -1.959278 1.151669 -0.469934 -1.959279 1.151672 -0.348724 -1.470352 0.862162 1.648780 -11.674541 -4.514883 1.203113 14.469445 -7.940702 9.343380 4.413713 -2.102617 41.814688 -14.779566 -12.936937 -24.496330 -61.698308 85.761652 -41.249876 38.875292 51.143063 -7.886801 4.948832 -7.411840 -40.563199 -9.622179 18.974015 0.057780 -62.171039 -63.196066 26.620731 7.660777 -71.625400 -4.462566 -0.870010 -6.154300 3.171142 -11.492357 -15.533001 0.647926 8.925927 2.923753 1.204362 0.977038 0.148962 -0.998448 -1.245773 10.511674 0.147774 -5.682176 6.764382 6.404851 -1.203906 4.086340 -0.075826 0.088843 0.134521 
16.214729 -6.523698 83.832047 -2.452741 -1.222901 -115.394639 -1.591244 -4.274225 3.173441 -0.496076 -1.965291 1.171558 -0.496076 -1.965291 1.171560 -0.368253 -1.474926 0.876987 1.753440 -11.697269 -4.581963 1.375858 14.430475 -8.023026 9.341434 4.443392 -2.089927 41.765521 -14.814170 -12.813163 -24.483887 -61.758413 85.762096 -41.239190 38.800542 51.124034 -7.923253 5.065659 -7.383452 -40.553504 -9.586083 19.045590 0.061224 -62.229314 -63.154374 26.561578 7.813070 -71.689345 -4.271231 -0.831158 -6.174023 3.299110 -11.525016 -15.494764 0.399613 8.635486 1.957359 0.989882 1.222132 0.147134 -0.755105 -1.493337 10.735150 0.202586 -5.220863 6.504327 5.703436 -1.316539 4.499900 0.341426 -0.051296 0.162097 
16.151730 -6.802073 83.878571 -2.421362 -1.344749 -115.171183 -1.458059 -4.304176 3.167659 -0.544004 -1.971925 1.194129 -0.544004 -1.971925 1.194131 -0.404110 -1.480014 0.893759 1.866901 -11.744976 -4.659830 1.562134 14.345296 -8.121365 9.330997 4.441457 -2.102755 41.778194 -14.883334 -12.635199 -24.401638 -61.824386 85.659151 -41.244797 38.707976 51.096095 -7.942955 5.184461 -7.349430 -40.536165 -9.534265 19.129456 -0.020188 -62.281954 -63.041082 26.452460 8.008569 -71.828277 -3.977530 -0.586628 -6.070420 3.356969 -11.708523 -15.153138 0.039661 8.342226 0.961603 0.848361 1.296423 0.111471 -0.358838 -1.793484 10.501228 0.080748 -4.829859 6.530961 5.065099 -1.337891 4.775206 0.658717 -0.169207 0.147232 
